<?xml version="1.0" encoding="UTF-8"?>
<svg version="1.1" xmlns="http://www.w3.org/2000/svg" width="472" height="476">
<path d="M0 0 C155.76 0 311.52 0 472 0 C472 157.08 472 314.16 472 476 C316.24 476 160.48 476 0 476 C0 318.92 0 161.84 0 0 Z " fill="#FCFDFD" transform="translate(0,0)"/>
<path d="M0 0 C1.14900032 0.00068733 1.14900032 0.00068733 2.32121277 0.00138855 C3.92892012 0.00439388 5.536625 0.01222824 7.14428711 0.0246582 C9.61517529 0.04304096 12.08569084 0.04516679 14.55664062 0.04492188 C16.12109701 0.04983296 17.68555086 0.05565949 19.25 0.0625 C19.99159866 0.06361282 20.73319733 0.06472565 21.49726868 0.06587219 C26.67687634 0.11437634 26.67687634 0.11437634 27.79296875 1.23046875 C27.93771196 2.63500018 28.01998557 4.04610323 28.07421875 5.45703125 C28.13029297 6.75833984 28.13029297 6.75833984 28.1875 8.0859375 C28.23970703 9.45685547 28.23970703 9.45685547 28.29296875 10.85546875 C28.52193686 16.7153562 28.84105344 22.43965062 29.79296875 28.23046875 C28.68223999 28.2444873 28.68223999 28.2444873 27.54907227 28.25878906 C24.15056223 28.31291476 20.75336673 28.39647987 17.35546875 28.48046875 C16.19080078 28.49464844 15.02613281 28.50882813 13.82617188 28.5234375 C3.43102058 28.81625866 -3.77147197 31.19131301 -11.41796875 38.3046875 C-17.83327943 45.21025118 -20.51334982 52.60818731 -20.48118591 62.00845337 C-20.48642259 62.77282097 -20.49165927 63.53718858 -20.49705464 64.32471883 C-20.5120102 66.87620072 -20.51275881 69.42748127 -20.51342773 71.97900391 C-20.52105237 73.81261532 -20.5294804 75.64622354 -20.53865051 77.47982788 C-20.56057623 82.45533244 -20.56939219 87.43077554 -20.57447696 92.40632296 C-20.57812374 95.51845175 -20.58436557 98.63056454 -20.59147835 101.74268723 C-20.61596912 112.61052912 -20.6290233 123.47832333 -20.63256836 134.34619141 C-20.63620017 144.45840898 -20.66607118 154.57032239 -20.70797294 164.68244708 C-20.74273233 173.37738631 -20.7581178 182.07222505 -20.75881439 190.76723325 C-20.75960548 195.95437149 -20.76826608 201.14120001 -20.79681206 206.32826614 C-20.82308851 211.21217446 -20.82514462 216.09551842 -20.80915642 220.97946548 C-20.80734935 222.76438127 -20.81396505 224.54933022 -20.82997513 226.33417511 C-20.93626085 238.96079763 -19.62109126 248.84862463 -11.58203125 259.16796875 C-3.37422114 267.49646645 5.38138821 268.76153534 16.61004066 268.89078999 C19.6373709 268.89834072 22.66411453 268.88276189 25.69140625 268.8671875 C27.81606082 268.87523729 29.94070732 268.88576096 32.06533813 268.89863586 C37.62992782 268.9270612 43.19414394 268.92777919 48.75878906 268.92077637 C57.68507593 268.91342516 66.61124432 268.94479432 75.53743362 268.98322487 C78.6490153 268.99206704 81.76033664 268.98677949 84.87191772 268.97966003 C86.77707999 268.983044 88.68224165 268.98679311 90.58740234 268.9909668 C91.44981537 268.98527176 92.31222839 268.97957672 93.20077515 268.97370911 C100.61280463 269.01024965 104.55807801 270.66067813 110.04296875 275.79296875 C110.79429077 276.48869995 110.79429077 276.48869995 111.56079102 277.19848633 C114.86067851 280.2903665 118.03485457 283.48914322 121.1796875 286.73828125 C121.93282227 287.51099365 122.68595703 288.28370605 123.46191406 289.07983398 C124.95879112 290.62262257 126.44415403 292.17667772 127.91699219 293.74243164 C128.60696289 294.45391357 129.29693359 295.16539551 130.0078125 295.8984375 C130.6174585 296.54063232 131.22710449 297.18282715 131.85522461 297.84448242 C133.74146603 299.40107641 133.74146603 299.40107641 136.25244141 299.68310547 C139.63063931 299.08122397 140.84442119 297.76698489 143.2265625 295.3203125 C144.04060547 294.49466797 144.85464844 293.66902344 145.69335938 292.81835938 C146.94922852 291.50641602 146.94922852 291.50641602 148.23046875 290.16796875 C149.06384766 289.32041016 149.89722656 288.47285156 150.75585938 287.59960938 C154.76943956 283.49084547 158.66026569 279.38378594 162.13305664 274.80297852 C167.74351907 269.48793388 172.76029333 268.65586949 180.17797852 268.7956543 C181.09285538 268.79656067 182.00773224 268.79746704 182.95033264 268.79840088 C184.92824934 268.80245144 186.90616384 268.8153924 188.88397408 268.83630943 C192.02654275 268.86760746 195.16806503 268.87128952 198.31077576 268.86738586 C207.24266457 268.86088888 216.17407472 268.90099643 225.10571289 268.96606445 C230.57997289 269.00402437 236.05343161 269.0075313 241.52778435 268.99103737 C243.60120317 268.99179584 245.67466434 269.00566003 247.74789619 269.03351402 C261.25308147 269.21301015 272.15218689 268.54699382 282.89137268 259.45365906 C290.07613419 252.22609649 291.94273154 241.47223978 291.94013977 231.71786499 C291.9456548 230.59603819 291.9456548 230.59603819 291.95128125 229.45154822 C291.96227851 226.9499509 291.9661552 224.44839517 291.9699707 221.94677734 C291.97623838 220.15110137 291.98288545 218.35542669 291.98988342 216.55975342 C292.01089134 210.66614682 292.02128327 204.77254007 292.03125 198.87890625 C292.03529888 196.8469097 292.03941584 194.81491329 292.04360008 192.78291702 C292.06264516 183.23453693 292.07687721 173.68616453 292.08521205 164.1377691 C292.09497998 153.13053978 292.12129085 142.1235118 292.16171294 131.11635339 C292.19191405 122.59895199 292.20668475 114.08160816 292.20999306 105.56415427 C292.21233911 100.48158617 292.2212415 95.39923333 292.24645424 90.31672287 C292.26980971 85.53139472 292.27393822 80.74642242 292.26369286 75.96105194 C292.26319919 74.21119373 292.26946939 72.46131755 292.2832489 70.71151352 C292.38336035 57.23767241 291.15816273 46.41537087 281.31640625 36.3984375 C271.96439187 28.36381214 261.54706393 28.37270753 249.79296875 28.23046875 C250.12296875 27.24046875 250.45296875 26.25046875 250.79296875 25.23046875 C250.91839466 23.4817388 250.99421572 21.72921103 251.0390625 19.9765625 C251.07193359 18.95755859 251.10480469 17.93855469 251.13867188 16.88867188 C251.19997797 14.73774088 251.25725568 12.58669137 251.31054688 10.43554688 C251.34470703 9.41783203 251.37886719 8.40011719 251.4140625 7.3515625 C251.43911865 6.41755615 251.4641748 5.4835498 251.48999023 4.52124023 C251.79296875 2.23046875 251.79296875 2.23046875 253.79296875 0.23046875 C270.76041333 -1.92896163 285.60508759 -0.3823096 299.54296875 9.73046875 C309.90833991 17.85330204 317.10437158 29.30747336 319.32562733 42.36062241 C319.83015728 46.53841045 319.93513389 50.57946839 319.92668152 54.78082275 C319.92894708 55.61617074 319.93121263 56.45151872 319.93354684 57.31218028 C319.93985245 60.09778288 319.93905969 62.88333639 319.93823242 65.66894531 C319.94122608 67.67180951 319.94462908 69.67467314 319.94841003 71.67753601 C319.95723368 77.10950811 319.95958747 82.54146446 319.96022582 87.97344303 C319.9609373 91.37016272 319.9630735 94.76687841 319.96572304 98.16359711 C319.97497137 110.02231602 319.97905861 121.8810237 319.97827148 133.73974609 C319.97767098 144.77949731 319.98821882 155.81919961 320.00401515 166.85893846 C320.01710805 176.34877192 320.02245464 185.83858943 320.02181607 195.32843184 C320.02156158 200.99104899 320.0243858 206.65362266 320.03499413 212.31623077 C320.04470443 217.64486175 320.04473419 222.97340797 320.03747749 228.30204201 C320.03643526 230.25184821 320.03877295 232.20165978 320.04483795 234.15145683 C320.09864784 252.65688836 318.68036578 269.19795974 305.06640625 283.203125 C290.49944986 296.1932459 275.7340478 297.83523405 257.07188416 297.38010597 C253.99984381 297.31082263 250.92928816 297.27758297 247.85656738 297.25480652 C239.13270111 297.18882737 230.41073012 297.09957575 221.68896484 296.89135742 C216.32171613 296.76581686 210.9579958 296.7150205 205.58934021 296.71088219 C203.56384446 296.69549351 201.53834436 296.65310761 199.51405334 296.58158302 C187.06482204 296.07136921 187.06482204 296.07136921 176.27416992 301.53134155 C172.98139217 304.64176645 170.06002746 307.99309219 167.22380066 311.51984215 C165.40192075 313.69798496 163.36648885 315.50247014 161.16796875 317.29296875 C158.89671933 319.20842159 157.22701445 320.90961391 155.29296875 323.23046875 C152.66053852 326.38938502 149.84085553 328.91156865 146.703125 331.55078125 C144.58376599 333.34002289 144.58376599 333.34002289 142.23046875 336.16796875 C139.79296875 338.23046875 139.79296875 338.23046875 136.48046875 338.98046875 C126.71491945 336.99425533 118.09686402 324.61225426 111.23046875 317.66796875 C108.85717199 315.2678298 106.48040853 312.87120017 104.1015625 310.4765625 C103.57219589 309.93889755 103.04282928 309.4012326 102.49742126 308.84727478 C101.49583459 307.83925404 100.4848862 306.84040388 99.46259785 305.85338402 C98.38392792 304.80489373 97.32417751 303.73641638 96.28875351 302.64519787 C92.30599033 298.75518438 89.4496708 297.53962228 83.89958191 297.46492004 C83.03657974 297.48342514 82.17357758 297.50193024 81.28442383 297.52099609 C79.8926593 297.51468925 79.8926593 297.51468925 78.47277832 297.508255 C75.41868096 297.50057287 72.3664121 297.53409749 69.3125 297.56640625 C67.17648427 297.56531146 65.04046799 297.56099824 62.90446472 297.55361938 C57.28482631 297.54022279 51.66582799 297.55901632 46.04626465 297.58807373 C37.07094829 297.63344864 28.09598457 297.64893775 19.12058067 297.62852859 C16.00075306 297.62889875 12.88184934 297.65457232 9.76216125 297.68222046 C-7.2863738 297.73508935 -21.66303214 294.57558198 -34.58203125 282.41796875 C-44.64772957 271.57959235 -49.37055481 258.55063929 -49.34074402 243.92771912 C-49.34300958 243.10688735 -49.34527513 242.28605558 -49.34760934 241.44035012 C-49.35392475 238.69776781 -49.35312154 235.95523524 -49.35229492 233.21264648 C-49.35528804 231.24273108 -49.35869093 229.27281627 -49.36247253 227.30290222 C-49.37130354 221.95544461 -49.37365034 216.60800301 -49.37428832 211.26053882 C-49.37499961 207.91590442 -49.37713548 204.57127409 -49.37978554 201.2266407 C-49.38903767 189.54716865 -49.3931208 177.86770801 -49.39233398 166.18823242 C-49.391734 155.32065679 -49.40227067 144.45313093 -49.41807765 133.58556789 C-49.43118134 124.24179427 -49.43651666 114.89803685 -49.43587857 105.55425411 C-49.43562432 99.97986639 -49.43843529 94.40552286 -49.44905663 88.83114433 C-49.45878466 83.58213525 -49.45878468 78.33321214 -49.45153999 73.08419991 C-49.45049981 71.16587319 -49.45282307 69.247541 -49.45890045 67.32922363 C-49.5203387 46.57922341 -47.80979176 29.81892002 -33.109375 13.96875 C-24.06854843 5.3545323 -12.52409166 -0.1230278 0 0 Z " fill="#039BD9" transform="translate(98.20703125,94.76953125)"/>
<path d="M0 0 C1.22976562 -0.05607422 1.22976562 -0.05607422 2.484375 -0.11328125 C11.41705839 1.26194826 17.21501025 8.96137449 23.1875 15.125 C24.62488118 16.59786007 26.06454173 18.06838183 27.50721741 19.53605652 C28.82040755 20.87357696 30.12710115 22.21746693 31.43334961 23.56176758 C33.60535423 25.68294085 35.79276449 27.67501497 38.08813477 29.6550293 C42.31433857 33.31744119 46.2587368 37.21060279 50.1875 41.1875 C50.91187256 41.91565918 51.63624512 42.64381836 52.38256836 43.39404297 C55.44542424 46.47306951 58.50222311 49.55808323 61.55957031 52.64257812 C63.80844117 54.90965458 66.06040238 57.17362966 68.3125 59.4375 C68.98982178 60.12312012 69.66714355 60.80874023 70.36499023 61.51513672 C74.25525955 65.4250466 78.2490286 69.14493951 82.43725586 72.73461914 C85.19860926 75.13820527 87.75546544 77.63087534 90.25 80.3125 C90.25 80.9725 90.25 81.6325 90.25 82.3125 C91.57 82.3125 92.89 82.3125 94.25 82.3125 C94.55164063 81.50425781 94.55164063 81.50425781 94.859375 80.6796875 C96.83084894 77.32375152 99.63219516 75.01177312 102.5 72.4375 C112.55461057 63.2328469 122.0979049 53.51901274 131.68847656 43.83642578 C137.06275738 38.4213234 142.39422937 33.06701275 148.21972656 28.13330078 C150.95097949 25.68384379 153.50696425 23.07139447 156.0703125 20.44921875 C156.83906708 19.66510117 156.83906708 19.66510117 157.62335205 18.86514282 C159.7494932 16.69369156 161.8732592 14.52025325 163.98291016 12.33276367 C165.54455651 10.7165193 167.11872201 9.11337115 168.6953125 7.51171875 C169.39867233 6.77268562 169.39867233 6.77268562 170.11624146 6.01872253 C174.29678573 1.80569082 178.73195554 0.06121144 184.625 -0.125 C189.70805767 -0.00479256 193.52154198 1.89615272 197.25 5.3125 C199.99710857 9.15138063 200.62710037 11.79303993 200.63768005 16.48532104 C200.64758469 17.72737305 200.65748932 18.96942505 200.66769409 20.24911499 C200.66345632 21.61773781 200.65889849 22.98635967 200.65405273 24.35498047 C200.65975769 25.80247525 200.66672244 27.24996553 200.67485046 28.69744873 C200.69278506 32.62318223 200.69161276 36.54869224 200.68590808 40.4744544 C200.68281609 43.75469511 200.68890892 47.0348929 200.69494683 50.31512749 C200.70899195 58.05598724 200.7074314 65.79673663 200.69604492 73.53759766 C200.68456847 81.51577251 200.69863129 89.49361103 200.7254414 97.47174156 C200.74761633 104.32797003 200.7542316 111.18409307 200.74836498 118.04035485 C200.74499789 122.13239159 200.74739362 126.22421283 200.76461601 130.31621933 C200.7801114 134.16591821 200.77610133 138.01512008 200.75731087 141.8647995 C200.75363184 143.2744627 200.75671347 144.68416294 200.76719666 146.09379196 C200.85841011 159.3772174 200.85841011 159.3772174 196.25 165.3125 C191.63270343 169.04156042 187.22856142 168.9294873 181.48828125 168.79296875 C176.61205471 168.06947555 173.39540364 166.07768761 170.25 162.3125 C166.96774484 157.0521118 166.80789284 152.73299583 166.81762695 146.72705078 C166.80233948 145.30659203 166.80233948 145.30659203 166.78674316 143.85743713 C166.7566531 140.74083509 166.74735318 137.62454062 166.73828125 134.5078125 C166.72143164 132.34161358 166.70328102 130.17542443 166.68388367 128.00924683 C166.6364084 122.31786143 166.60658288 116.62651561 166.58044434 110.93499756 C166.55062647 105.1232522 166.50410029 99.31164317 166.45898438 93.5 C166.37297929 82.10423802 166.30562143 70.70844795 166.25 59.3125 C162.327189 61.12704296 159.65838308 63.66374306 156.671875 66.73046875 C156.14160706 67.26593826 155.61133911 67.80140778 155.06500244 68.35310364 C153.37182944 70.06403752 151.68547792 71.78148768 150 73.5 C147.78990775 75.74691645 145.57655972 77.99055047 143.359375 80.23046875 C142.55059654 81.04790306 142.55059654 81.04790306 141.72547913 81.8818512 C138.97783901 84.6406566 136.20181791 87.29967143 133.23046875 89.8203125 C129.72681791 92.79763835 126.51901086 96.03047961 123.31640625 99.32421875 C122.78898834 99.86425034 122.26157043 100.40428192 121.71817017 100.9606781 C119.52813506 103.20470327 117.33961479 105.44968433 115.1706543 107.71411133 C102.05660259 121.37695014 102.05660259 121.37695014 92.46484375 122.6953125 C91.71332031 122.61023438 90.96179688 122.52515625 90.1875 122.4375 C89.05634766 122.34855469 89.05634766 122.34855469 87.90234375 122.2578125 C78.72746602 118.98782662 71.91359019 110.17947165 65.25 103.375 C63.17016037 101.25824964 61.087 99.14484734 59 97.03515625 C58.24224274 96.26887909 58.24224274 96.26887909 57.46917725 95.48712158 C54.81838333 92.82522053 52.12667697 90.26592772 49.265625 87.83203125 C45.78387724 84.86651471 42.56403633 81.67277738 39.359375 78.4140625 C38.84234009 77.88914719 38.32530518 77.36423187 37.79260254 76.82341003 C35.64536581 74.63965271 33.50126619 72.4529982 31.36621094 70.25732422 C29.78730355 68.63616706 28.19915652 67.02454742 26.609375 65.4140625 C26.13014587 64.91621246 25.65091675 64.41836243 25.15716553 63.90542603 C22.57730461 61.30595227 20.82166999 60.01477338 17.25 59.3125 C17.25666183 60.50187164 17.26332367 61.69124329 17.27018738 62.91665649 C17.33101743 74.12846099 17.37598182 85.34023197 17.40543652 96.55216408 C17.42108856 102.31625881 17.44231868 108.08022026 17.47631836 113.84423828 C17.50892786 119.4074268 17.52685649 124.97048716 17.53463173 130.53376389 C17.54017235 132.65563347 17.55099179 134.77749608 17.56719017 136.89931107 C17.58898529 139.87264382 17.59196601 142.8454478 17.59057617 145.81884766 C17.601362 146.6949469 17.61214783 147.57104614 17.6232605 148.47369385 C17.5934978 154.3627838 16.66987129 158.68913953 12.53125 163.17578125 C11.9434375 163.65402344 11.355625 164.13226563 10.75 164.625 C10.1621875 165.11613281 9.574375 165.60726562 8.96875 166.11328125 C4.37158307 169.32085 -1.39676615 168.85624764 -6.75 168.3125 C-11.84511398 165.94691137 -13.60552008 163.39991451 -15.75 158.3125 C-16.13031673 155.27960205 -16.13031673 155.27960205 -16.13768005 152.01269531 C-16.14758469 150.76782349 -16.15748932 149.52295166 -16.16769409 148.24035645 C-16.16345664 146.8737783 -16.15889884 145.50720112 -16.15405273 144.140625 C-16.15975932 142.69136021 -16.1667247 141.24209992 -16.17485046 139.79284668 C-16.1927637 135.86723942 -16.19161719 131.94185591 -16.18590808 128.01622009 C-16.18281405 124.73583497 -16.18891095 121.4554927 -16.19494683 118.17511368 C-16.20898394 110.43571649 -16.20743711 102.69642971 -16.19604492 94.95703125 C-16.18455976 86.97824774 -16.19864775 78.9998002 -16.2254414 71.02106094 C-16.24760441 64.16397869 -16.25423457 57.30700185 -16.24836498 50.44988632 C-16.24499619 46.35733745 -16.24740539 42.26500403 -16.26461601 38.17248535 C-16.28009318 34.32441763 -16.27612153 30.47684755 -16.25731087 26.62879944 C-16.2536273 25.21871536 -16.25672678 23.80859433 -16.26719666 22.39854431 C-16.35765921 9.2057057 -16.35765921 9.2057057 -11.75 4.3125 C-8.07405688 1.08212574 -4.8418548 0.14284975 0 0 Z " fill="#022579" transform="translate(141.75,160.6875)"/>
<path d="M0 0 C1.43860886 -0.00845947 1.43860886 -0.00845947 2.90628052 -0.01708984 C3.96193207 -0.01304138 5.01758362 -0.00899292 6.10522461 -0.00482178 C7.21421112 -0.00832642 8.32319763 -0.01183105 9.46578979 -0.01544189 C13.14644557 -0.02427366 16.82691049 -0.01840488 20.50756836 -0.01165771 C23.0558272 -0.01300395 25.60408579 -0.01494413 28.15234375 -0.01745605 C33.49896928 -0.02040928 38.84552586 -0.01629289 44.19213867 -0.0067749 C50.37811107 0.00410996 56.56395164 0.00058448 62.74992085 -0.01042771 C68.69477248 -0.02058807 74.63958306 -0.01952435 80.58444214 -0.01366425 C83.11709613 -0.01232626 85.64975347 -0.01398064 88.18240356 -0.01862335 C91.71666488 -0.0236797 95.25066997 -0.01599075 98.78491211 -0.00482178 C99.84056366 -0.00887024 100.89621521 -0.0129187 101.9838562 -0.01708984 C102.94292877 -0.0114502 103.90200134 -0.00581055 104.89013672 0 C105.7263707 0.00075405 106.56260468 0.0015081 107.42417908 0.002285 C109.44506836 0.25396729 109.44506836 0.25396729 111.44506836 2.25396729 C111.77506836 10.83396729 112.10506836 19.41396729 112.44506836 28.25396729 C72.51506836 28.25396729 32.58506836 28.25396729 -8.55493164 28.25396729 C-8.05993164 26.76896729 -8.05993164 26.76896729 -7.55493164 25.25396729 C-7.42950574 23.50523733 -7.35368467 21.75270957 -7.30883789 20.00006104 C-7.25953125 18.47155518 -7.25953125 18.47155518 -7.20922852 16.91217041 C-7.14792242 14.76123941 -7.09064471 12.6101899 -7.03735352 10.45904541 C-7.00319336 9.44133057 -6.9690332 8.42361572 -6.93383789 7.37506104 C-6.90878174 6.44105469 -6.88372559 5.50704834 -6.85791016 4.54473877 C-6.27062695 0.10438559 -3.90852072 0.0035244 0 0 Z " fill="#0361F6" transform="translate(185.554931640625,94.74603271484375)"/>
<path d="M0 0 C5.00230198 2.45567552 8.49851535 5.9970307 11 11 C11.10484099 12.50471422 11.14868208 14.01390599 11.16113281 15.5222168 C11.17074036 16.46046799 11.1803479 17.39871918 11.19024658 18.36540222 C11.1966214 19.8918914 11.1966214 19.8918914 11.203125 21.44921875 C11.20882507 22.4951973 11.21452515 23.54117584 11.22039795 24.61885071 C11.22985816 26.83728013 11.23638597 29.05572367 11.24023438 31.27416992 C11.24991085 34.6563401 11.28091303 38.03789517 11.3125 41.41992188 C11.31903293 43.57551723 11.32428226 45.73111692 11.328125 47.88671875 C11.3404718 48.89425705 11.3528186 49.90179535 11.36553955 50.93986511 C11.34385776 57.83223861 10.5863961 62.81011148 6.125 68.3125 C0.87827394 72.47901775 -4.51122661 72.6561681 -11 72 C-16.2322277 70.2559241 -18.32310953 67.7589164 -21 63 C-21.95896364 60.12310909 -22.14216969 58.24904845 -22.17700195 55.2565918 C-22.18983719 54.29516769 -22.20267242 53.33374359 -22.21589661 52.34318542 C-22.22328354 51.30567642 -22.23067047 50.26816742 -22.23828125 49.19921875 C-22.246353 48.13008743 -22.25442474 47.06095612 -22.26274109 45.95942688 C-22.27657591 43.69570536 -22.28730076 41.43196303 -22.29516602 39.16821289 C-22.31238124 35.71134826 -22.35627416 32.25543939 -22.40039062 28.79882812 C-22.41051753 26.59896536 -22.41903364 24.39909447 -22.42578125 22.19921875 C-22.44328934 21.16778244 -22.46079742 20.13634613 -22.47883606 19.07365417 C-22.4572315 11.90395159 -21.30735467 8.61873412 -16.46484375 3.3203125 C-11.35254262 -0.68061882 -6.32227841 -1.03142911 0 0 Z " fill="#0262F7" transform="translate(158,57)"/>
<path d="M0 0 C5.64896332 2.65887687 8.69573652 6.22707194 11 12 C11.43546114 15.62666157 11.42059527 19.2256924 11.3984375 22.875 C11.40130768 23.91769043 11.40417786 24.96038086 11.40713501 26.03466797 C11.40917133 28.23340398 11.40367177 30.43215829 11.39111328 32.63085938 C11.37505407 35.98869488 11.39097726 39.34532675 11.41015625 42.703125 C11.40817374 44.84375265 11.40432991 46.98437955 11.3984375 49.125 C11.40754654 50.62522705 11.40754654 50.62522705 11.4168396 52.15576172 C11.35319465 58.49016244 10.44071647 62.69585459 6.59765625 67.8984375 C2.92441584 71.4314779 0.11841968 72.4456311 -5 72.625 C-10.46697398 72.33078238 -13.70119061 71.38416909 -18 68 C-21.28945921 63.61405439 -22.11274663 59.62461926 -22.17700195 54.23486328 C-22.18983719 53.29353546 -22.20267242 52.35220764 -22.21589661 51.38235474 C-22.22328354 50.3718808 -22.23067047 49.36140686 -22.23828125 48.3203125 C-22.246353 47.27479218 -22.25442474 46.22927185 -22.26274109 45.15206909 C-22.27656097 42.94140268 -22.28729248 40.73071512 -22.29516602 38.52001953 C-22.31240072 35.14444583 -22.3563091 31.76984621 -22.40039062 28.39453125 C-22.41051623 26.24479885 -22.41903274 24.09505815 -22.42578125 21.9453125 C-22.44328934 20.93888702 -22.46079742 19.93246155 -22.47883606 18.89553833 C-22.46085026 13.06968864 -21.97831503 9.57949273 -18 5 C-12.17941408 -0.12765902 -7.69902836 -1.08948514 0 0 Z " fill="#0367F6" transform="translate(329,57)"/>
<path d="M0 0 C3.13180809 1.62390049 5.24339744 3.00266026 7.375 5.8125 C8.7205825 10.52203875 8.57570135 13.89124184 6.3125 18.25 C3.43548325 21.67131721 1.48402177 23.76539794 -3.109375 24.19921875 C-7.59823218 24.0561176 -10.40645575 23.20572591 -13.5625 19.9375 C-15.93610902 16.68625403 -16.89997869 14.02471231 -16.6015625 9.99609375 C-15.46802156 6.2347988 -12.88304945 3.57681881 -10 1 C-6.78501861 -0.6074907 -3.48701742 -0.47314549 0 0 Z " fill="#0BB6C6" transform="translate(279,314)"/>
<path d="M0 0 C3.75212276 2.01502889 5.63644095 3.45466142 8 7 C8.43115734 12.34635097 8.48027771 15.67965526 5 20 C2.16038976 23.00187368 0.07766424 24.27730271 -4 24.5 C-8.05115336 24.29362049 -10.1499114 22.93391473 -13 20 C-15.82792793 15.7581081 -15.78122286 11.98126257 -15 7 C-11.59163943 0.66475731 -6.92659144 -0.95272819 0 0 Z " fill="#0BBBC6" transform="translate(238,314)"/>
<path d="M0 0 C3.12842484 1.4473951 5.1511135 3.07979608 7 6 C8.02790783 10.70436651 7.60929995 14.60731441 5.6875 19 C3.54322119 21.54136748 1.81442009 22.85552674 -1.48828125 23.44140625 C-8.79350678 23.75463169 -8.79350678 23.75463169 -12.0546875 21.71484375 C-14.88031002 18.74726412 -16.3632011 16.05488264 -16.625 11.9375 C-15.93242056 7.5742495 -14.81038633 5.3724636 -12 2 C-7.93487124 -0.71008584 -4.77018025 -0.8673055 0 0 Z " fill="#06B5C5" transform="translate(198,314)"/>
<path d="M0 0 C2.42664167 0.04474553 4.85229041 0.06155103 7.27929688 0.07348633 C8.82097803 0.08688608 10.36264692 0.10180225 11.90429688 0.1184082 C12.63021027 0.12579514 13.35612366 0.13318207 14.10403442 0.14079285 C19.15301731 0.23822238 19.15301731 0.23822238 20.27148438 1.35668945 C20.41622759 2.76122088 20.4985012 4.17232393 20.55273438 5.58325195 C20.60880859 6.88456055 20.60880859 6.88456055 20.66601562 8.2121582 C20.71822266 9.58307617 20.71822266 9.58307617 20.77148438 10.98168945 C21.00045248 16.8415769 21.31956907 22.56587132 22.27148438 28.35668945 C21.51528809 28.38174561 20.7590918 28.40680176 19.97998047 28.43261719 C16.53532978 28.54905832 13.0909203 28.67156607 9.64648438 28.79418945 C8.45667969 28.83350586 7.266875 28.87282227 6.04101562 28.91333008 C4.88730469 28.95522461 3.73359375 28.99711914 2.54492188 29.0402832 C1.48708496 29.07694092 0.42924805 29.11359863 -0.66064453 29.15136719 C-3.73778836 29.35731005 -6.69719653 29.79849767 -9.72851562 30.35668945 C-9.72851562 29.69668945 -9.72851562 29.03668945 -9.72851562 28.35668945 C-6.32988179 26.31320709 -3.58431459 26.0583306 0.34960938 25.94262695 C1.50976562 25.90395508 2.66992188 25.8652832 3.86523438 25.82543945 C5.67507812 25.7790332 5.67507812 25.7790332 7.52148438 25.73168945 C8.74351563 25.69301758 9.96554688 25.6543457 11.22460938 25.61450195 C14.24008378 25.52026838 17.25555265 25.4346549 20.27148438 25.35668945 C20.12855957 24.6402124 19.98563477 23.92373535 19.83837891 23.18554688 C18.47289277 16.07607473 18.10102161 9.60135694 18.27148438 2.35668945 C13.32148437 2.02668945 8.37148437 1.69668945 3.27148438 1.35668945 C2.94148438 2.01668945 2.61148438 2.67668945 2.27148438 3.35668945 C1.61148438 3.35668945 0.95148438 3.35668945 0.27148438 3.35668945 C0.27148438 2.69668945 0.27148438 2.03668945 0.27148438 1.35668945 C-0.69789062 1.68668945 -1.66726562 2.01668945 -2.66601562 2.35668945 C-6.44115058 3.45841251 -9.90201996 3.48407224 -13.81054688 3.3293457 C-15.8152128 3.21903056 -15.8152128 3.21903056 -17.72851562 4.35668945 C-19.72811574 4.39668146 -21.72898805 4.40015744 -23.72851562 4.35668945 C-23.72851562 5.01668945 -23.72851562 5.67668945 -23.72851562 6.35668945 C-24.93507813 6.88262695 -24.93507813 6.88262695 -26.16601562 7.41918945 C-32.6916084 10.68973595 -38.47705397 15.43501072 -42.72851562 21.35668945 C-43.59476563 22.34668945 -44.46101563 23.33668945 -45.35351562 24.35668945 C-52.50461182 33.38965307 -53.55514413 47.2817432 -55.72851562 58.35668945 C-56.05851562 58.35668945 -56.38851562 58.35668945 -56.72851562 58.35668945 C-56.10934708 39.76028238 -56.10934708 39.76028238 -52.72851562 32.35668945 C-52.41269531 31.57422852 -52.096875 30.79176758 -51.77148438 29.9855957 C-46.78026827 18.68040303 -37.78335932 9.78060153 -26.72851562 4.35668945 C-26.01566406 4.00437256 -25.3028125 3.65205566 -24.56835938 3.2890625 C-16.44331163 -0.22293969 -8.68663385 -0.16023366 0 0 Z " fill="#166DF5" transform="translate(105.728515625,94.643310546875)"/>
<path d="M0 0 C0 0.33 0 0.66 0 1 C-4.76502886 2.22361562 -9.40614937 2.13369304 -14.28833008 2.11352539 C-15.21564941 2.11367142 -16.14296875 2.11381744 -17.09838867 2.1139679 C-20.15546021 2.11327269 -23.21247039 2.10549864 -26.26953125 2.09765625 C-28.39230821 2.09579068 -30.51508561 2.09436743 -32.63786316 2.09336853 C-38.21915887 2.08955433 -43.80042846 2.07973339 -49.38171387 2.06866455 C-55.07934211 2.05842686 -60.77697458 2.05386586 -66.47460938 2.04882812 C-77.64975104 2.03811015 -88.82487335 2.02104687 -100 2 C-97.14318557 -0.85681443 -94.31923239 -0.29990959 -90.49267578 -0.30297852 C-89.71852325 -0.31141785 -88.94437073 -0.31985718 -88.14675903 -0.32855225 C-85.57960417 -0.35440727 -83.01256451 -0.36649008 -80.4453125 -0.37890625 C-78.66412438 -0.39507578 -76.88294517 -0.41225519 -75.10177612 -0.43040466 C-70.40484741 -0.47617083 -65.70790685 -0.51092903 -61.01086426 -0.54260254 C-53.49920942 -0.59439391 -45.98768624 -0.65967343 -38.47619247 -0.73081779 C-35.85052384 -0.75364361 -33.22487177 -0.76992261 -30.59915161 -0.78553772 C-28.98813702 -0.79894795 -27.37712412 -0.81256306 -25.76611328 -0.82641602 C-25.03557739 -0.82902939 -24.3050415 -0.83164276 -23.55236816 -0.83433533 C-3.19171627 -1.04219307 -3.19171627 -1.04219307 0 0 Z " fill="#19C6BF" transform="translate(379,390)"/>
<path d="M0 0 C0.66 0 1.32 0 2 0 C1.50575733 3.1631531 0.70845379 5.70973951 -0.51804829 8.69553375 C-2.05730213 12.76080171 -2.42934107 16.54646219 -2.39872742 20.87145996 C-2.40537424 21.62150189 -2.41202107 22.37154382 -2.41886932 23.14431429 C-2.43738686 25.63476253 -2.43490172 28.12472556 -2.43237305 30.61523438 C-2.4413971 32.40950188 -2.45172589 34.20376322 -2.46325684 35.99801636 C-2.4907774 40.8527761 -2.50010465 45.7074187 -2.50611091 50.56224632 C-2.51550743 55.64184565 -2.54171188 60.72135792 -2.56611633 65.80090332 C-2.60974982 75.41251312 -2.63831616 85.02410599 -2.66143972 94.63578463 C-2.68850826 105.58139855 -2.73241877 116.52692476 -2.77772844 127.47247601 C-2.8705296 149.98160309 -2.9422311 172.49075767 -3 195 C-3.33 195 -3.66 195 -4 195 C-4.0233499 171.09573515 -4.04098948 147.19147202 -4.05181217 123.28719807 C-4.05697067 112.18828767 -4.06400491 101.08938436 -4.07543945 89.99047852 C-4.08539987 80.31782104 -4.09185668 70.64516869 -4.09408849 60.97250623 C-4.09539328 55.84989772 -4.09846457 50.72730389 -4.10573006 45.60470009 C-4.11251166 40.78426259 -4.11461258 35.96384582 -4.11310768 31.14340401 C-4.11338304 29.37330259 -4.11537548 27.60320048 -4.11920547 25.83310318 C-4.1241761 23.41758462 -4.1229858 21.00214449 -4.12025452 18.58662415 C-4.12316736 17.88525387 -4.1260802 17.18388359 -4.12908131 16.46125966 C-4.11802763 12.84766572 -3.85442718 9.51469085 -3 6 C-2.34 6 -1.68 6 -1 6 C-1.020625 5.195625 -1.04125 4.39125 -1.0625 3.5625 C-1 1 -1 1 0 0 Z " fill="#007AE8" transform="translate(79,138)"/>
<path d="M0 0 C30.03 0 60.06 0 91 0 C91 0.33 91 0.66 91 1 C90.12674072 1.02505615 89.25348145 1.0501123 88.35375977 1.07592773 C85.12397448 1.17087709 81.89435846 1.27012029 78.66479492 1.37231445 C77.26510801 1.41571434 75.86536641 1.45738564 74.46557617 1.49731445 C72.45738505 1.55489445 70.44938851 1.61914 68.44140625 1.68359375 C67.23170166 1.72025146 66.02199707 1.75690918 64.77563477 1.79467773 C62.09294544 1.68938266 62.09294544 1.68938266 61 3 C59.37325222 3.09340434 57.74245949 3.11745171 56.11303711 3.11352539 C55.07203354 3.11344986 54.03102997 3.11337433 52.95848083 3.11329651 C51.8262056 3.10813522 50.69393036 3.10297394 49.52734375 3.09765625 C48.37456436 3.0962413 47.22178497 3.09482635 46.03407288 3.09336853 C42.33518936 3.08775005 38.63636536 3.07519442 34.9375 3.0625 C32.43684983 3.05748738 29.93619871 3.05292406 27.43554688 3.04882812 C21.29034412 3.03777462 15.14517631 3.02101852 9 3 C9 2.67 9 2.34 9 2 C6.03 1.67 3.06 1.34 0 1 C0 0.67 0 0.34 0 0 Z " fill="#E8F7FB" transform="translate(98,392)"/>
<path d="M0 0 C0.95310059 0.01047363 1.90620117 0.02094727 2.88818359 0.03173828 C4.43505859 0.04140625 4.43505859 0.04140625 6.01318359 0.05126953 C7.63353516 0.07640625 7.63353516 0.07640625 9.28662109 0.10205078 C10.37458984 0.11107422 11.46255859 0.12009766 12.58349609 0.12939453 C15.27642261 0.15301669 17.96891365 0.18595522 20.66162109 0.22705078 C20.66162109 0.88705078 20.66162109 1.54705078 20.66162109 2.22705078 C20.07147217 2.21657715 19.48132324 2.20610352 18.87329102 2.1953125 C16.19861105 2.15373035 13.52399913 2.12771788 10.84912109 2.10205078 C9.4559668 2.07691406 9.4559668 2.07691406 8.03466797 2.05126953 C7.14199219 2.04482422 6.24931641 2.03837891 5.32958984 2.03173828 C4.50740967 2.02126465 3.68522949 2.01079102 2.83813477 2 C0.36740518 2.08708944 0.36740518 2.08708944 -2.33837891 4.22705078 C-2.75447163 6.55005462 -2.75447163 6.55005462 -2.63134766 9.23486328 C-2.62167969 10.22099609 -2.61201172 11.20712891 -2.60205078 12.22314453 C-2.5643457 13.77195312 -2.5643457 13.77195312 -2.52587891 15.35205078 C-2.51234375 16.39232422 -2.49880859 17.43259766 -2.48486328 18.50439453 C-2.44943118 21.07912705 -2.40003111 23.65283408 -2.33837891 26.22705078 C-1.29810547 26.04658203 -0.25783203 25.86611328 0.81396484 25.68017578 C8.20098649 24.81023212 15.28243316 26.43402012 21.66162109 30.22705078 C21.66162109 30.88705078 21.66162109 31.54705078 21.66162109 32.22705078 C22.65162109 31.89705078 23.64162109 31.56705078 24.66162109 31.22705078 C24.99162109 32.21705078 25.32162109 33.20705078 25.66162109 34.22705078 C26.65162109 34.72205078 26.65162109 34.72205078 27.66162109 35.22705078 C27.33162109 36.21705078 27.00162109 37.20705078 26.66162109 38.22705078 C25.85724609 37.48455078 25.05287109 36.74205078 24.22412109 35.97705078 C14.89378653 28.42698695 5.20821286 28.47616819 -6.33837891 28.22705078 C-5.84337891 26.74205078 -5.84337891 26.74205078 -5.33837891 25.22705078 C-5.212953 23.47832083 -5.13713194 21.72579306 -5.09228516 19.97314453 C-5.04297852 18.44463867 -5.04297852 18.44463867 -4.99267578 16.88525391 C-4.93136968 14.73432291 -4.87409197 12.5832734 -4.82080078 10.43212891 C-4.78664063 9.41441406 -4.75248047 8.39669922 -4.71728516 7.34814453 C-4.692229 6.41413818 -4.66717285 5.48013184 -4.64135742 4.51782227 C-4.21166487 1.26898647 -3.26603797 0.31712417 0 0 Z " fill="#0D7DF5" transform="translate(354.33837890625,94.77294921875)"/>
<path d="M0 0 C0.99 0.66 1.98 1.32 3 2 C-8.55 13.55 -20.1 25.1 -32 37 C-32.99 36.34 -33.98 35.68 -35 35 C-23.45 23.45 -11.9 11.9 0 0 Z " fill="#082478" transform="translate(279,199)"/>
<path d="M0 0 C0.33 0 0.66 0 1 0 C1.1767652 12.74293511 1.34273441 25.48596012 1.49477577 38.22921562 C1.56571084 44.14589702 1.64041771 50.06248147 1.72363281 55.97900391 C1.80374606 61.68472163 1.87409758 67.3904826 1.93757248 73.09640884 C1.96357182 75.27743112 1.99313746 77.45841379 2.02626419 79.63933945 C2.07192919 82.68515162 2.10511217 85.73085581 2.13525391 88.77685547 C2.1517952 89.68603729 2.16833649 90.59521912 2.18537903 91.5319519 C2.20014712 93.68880271 2.11014982 95.84591306 2 98 C1.01 98.99 1.01 98.99 0 100 C-1.24001677 95.2266621 -1.09446216 90.60145878 -1.02172852 85.71166992 C-1.01212097 84.78435059 -1.00251343 83.85703125 -0.99261475 82.90161133 C-0.95970266 79.84448467 -0.91934066 76.7875044 -0.87890625 73.73046875 C-0.85459752 71.60769666 -0.83075434 69.48491918 -0.80735779 67.36213684 C-0.74459179 61.78079085 -0.67550392 56.19954034 -0.60510254 50.61828613 C-0.53435149 44.92069844 -0.46957506 39.22304318 -0.40429688 33.52539062 C-0.275381 22.35018615 -0.13978685 11.17507341 0 0 Z " fill="#092D7C" transform="translate(310,220)"/>
<path d="M0 0 C0.66 0 1.32 0 2 0 C1.51342504 3.11407972 0.7537379 5.56756868 -0.51098633 8.48242188 C-2.48717512 13.70155096 -2.47670198 18.75384336 -2.51171875 24.28125 C-2.52966995 25.33534058 -2.54762115 26.38943115 -2.56611633 27.47546387 C-2.61996756 30.81693615 -2.65403452 34.15826765 -2.6875 37.5 C-2.72069526 39.77606115 -2.75518694 42.05210378 -2.79101562 44.328125 C-2.87567936 49.88529035 -2.94413511 55.44247449 -3 61 C-3.33 61 -3.66 61 -4 61 C-4.02536831 53.97079235 -4.04287462 46.94159652 -4.05493164 39.91235352 C-4.0599584 37.52139851 -4.06678075 35.13044657 -4.07543945 32.73950195 C-4.08757747 29.30158734 -4.09324492 25.86371339 -4.09765625 22.42578125 C-4.10281754 21.35789871 -4.10797882 20.29001617 -4.11329651 19.18977356 C-4.11340981 17.68878365 -4.11340981 17.68878365 -4.11352539 16.1574707 C-4.115746 15.28032913 -4.11796661 14.40318756 -4.12025452 13.49946594 C-3.99577809 10.91224853 -3.57111904 8.52321004 -3 6 C-2.34 6 -1.68 6 -1 6 C-1.020625 5.195625 -1.04125 4.39125 -1.0625 3.5625 C-1 1 -1 1 0 0 Z " fill="#0061F6" transform="translate(79,138)"/>
<path d="M0 0 C3.58872046 3.58872046 3.05171047 8.98200681 3.11352539 13.83374023 C3.11336882 15.65869907 3.10782446 17.48366324 3.09765625 19.30859375 C3.0962413 20.27531509 3.09482635 21.24203644 3.09336853 22.23805237 C3.08780221 25.30456732 3.07525599 28.37100738 3.0625 31.4375 C3.05748065 33.52538957 3.0529185 35.61328028 3.04882812 37.70117188 C3.03784382 42.8008098 3.02060255 47.90039223 3 53 C2.67 53 2.34 53 2 53 C1.06522945 44.7644211 0.9075662 36.65706875 1 28.375 C1.3597409 16.01858374 1.3597409 16.01858374 -0.59765625 3.88037109 C-1 2 -1 2 0 0 Z " fill="#0097E9" transform="translate(415,132)"/>
<path d="M0 0 C1.02574883 0.00212242 1.02574883 0.00212242 2.07221985 0.00428772 C4.25261847 0.00987749 6.43291376 0.02242803 8.61328125 0.03515625 C10.09309747 0.04017258 11.57291531 0.04473525 13.05273438 0.04882812 C16.67711682 0.05984354 20.30143895 0.07710113 23.92578125 0.09765625 C23.92578125 1.74765625 23.92578125 3.39765625 23.92578125 5.09765625 C23.43078125 3.61265625 23.43078125 3.61265625 22.92578125 2.09765625 C17.97578125 1.76765625 13.02578125 1.43765625 7.92578125 1.09765625 C7.59578125 1.75765625 7.26578125 2.41765625 6.92578125 3.09765625 C6.26578125 3.09765625 5.60578125 3.09765625 4.92578125 3.09765625 C4.92578125 2.43765625 4.92578125 1.77765625 4.92578125 1.09765625 C3.93578125 1.42765625 2.94578125 1.75765625 1.92578125 2.09765625 C-2.16016708 3.28416885 -5.83764269 3.24630804 -10.07421875 3.09765625 C-10.07421875 2.43765625 -10.07421875 1.77765625 -10.07421875 1.09765625 C-6.5359562 -0.0817646 -3.73273149 -0.01523564 0 0 Z " fill="#0D61F7" transform="translate(101.07421875,94.90234375)"/>
<path d="M0 0 C0.33 0 0.66 0 1 0 C1.21878619 6.92290946 1.41375744 13.84619349 1.59204102 20.77026367 C1.65553977 23.12653845 1.72452614 25.4826719 1.79907227 27.83862305 C1.90516928 31.2216225 1.99163636 34.60463639 2.07421875 37.98828125 C2.1302552 39.57277824 2.1302552 39.57277824 2.18742371 41.18928528 C2.20767105 42.17007553 2.2279184 43.15086578 2.2487793 44.16137695 C2.27320602 45.02519485 2.29763275 45.88901276 2.32279968 46.77900696 C2 49 2 49 -1 52 C-0.67 34.84 -0.34 17.68 0 0 Z " fill="#D4E7FC" transform="translate(169,68)"/>
<path d="M0 0 C1.9140625 1.10546875 1.9140625 1.10546875 4.7890625 3.10546875 C4.4590625 3.76546875 4.1290625 4.42546875 3.7890625 5.10546875 C2.4690625 4.77546875 1.1490625 4.44546875 -0.2109375 4.10546875 C-0.2109375 3.11546875 -0.2109375 2.12546875 -0.2109375 1.10546875 C-1.2009375 1.60046875 -1.2009375 1.60046875 -2.2109375 2.10546875 C-4.2484138 2.33404989 -6.29134053 2.51571153 -8.3359375 2.66796875 C-9.43164062 2.75175781 -10.52734375 2.83554688 -11.65625 2.921875 C-12.49929687 2.98246094 -13.34234375 3.04304687 -14.2109375 3.10546875 C-14.5409375 2.11546875 -14.8709375 1.12546875 -15.2109375 0.10546875 C-10.32296026 -1.523857 -4.85514443 -1.96436055 0 0 Z " fill="#233D8E" transform="translate(149.2109375,161.89453125)"/>
<path d="M0 0 C0.66 0 1.32 0 2 0 C1.79503906 0.67804688 1.59007812 1.35609375 1.37890625 2.0546875 C-0.25829466 7.71047245 -1.37614292 13.02133444 -1.69140625 18.90625 C-2 21 -2 21 -4 24 C-3.91228454 21.31106733 -3.80532075 18.62514692 -3.6875 15.9375 C-3.66494141 15.18533203 -3.64238281 14.43316406 -3.61914062 13.65820312 C-3.37120934 8.45164616 -2.31592957 4.67532163 0 0 Z " fill="#0961F7" transform="translate(53,129)"/>
<path d="M0 0 C0 3 0 3 -1.57421875 4.75390625 C-6.66524921 9.11092492 -10.07574313 12 -17 12 C-17 11.34 -17 10.68 -17 10 C-16.02417969 9.52949219 -15.04835938 9.05898438 -14.04296875 8.57421875 C-12.75765492 7.94563461 -11.47250733 7.31671048 -10.1875 6.6875 C-9.54490234 6.37876953 -8.90230469 6.07003906 -8.24023438 5.75195312 C-5.04392384 4.17863965 -2.29422893 2.77183792 0 0 Z " fill="#1FD0C1" transform="translate(382,353)"/>
<path d="M0 0 C2.24973447 -0.054138 4.49984383 -0.09285491 6.75 -0.125 C8.00296875 -0.14820312 9.2559375 -0.17140625 10.546875 -0.1953125 C13.72820492 -0.01537302 15.36521896 0.31001418 18 2 C14.9317362 2.89749822 12.20730024 3.11711768 9.015625 3.09765625 C8.08105469 3.09443359 7.14648438 3.09121094 6.18359375 3.08789062 C5.21550781 3.07951172 4.24742187 3.07113281 3.25 3.0625 C2.26644531 3.05798828 1.28289062 3.05347656 0.26953125 3.04882812 C-2.15370791 3.03706483 -4.57682273 3.02062684 -7 3 C-7 2.67 -7 2.34 -7 2 C-3.535 1.505 -3.535 1.505 0 1 C0 0.67 0 0.34 0 0 Z " fill="#C0DDFA" transform="translate(360,92)"/>
<path d="M0 0 C0.99 0.66 1.98 1.32 3 2 C-0.3 5.3 -3.6 8.6 -7 12 C-7.66 11.01 -8.32 10.02 -9 9 C-6.03 6.03 -3.06 3.06 0 0 Z " fill="#163286" transform="translate(279,199)"/>
<path d="M0 0 C7.59 0 15.18 0 23 0 C23 0.66 23 1.32 23 2 C22.41508789 1.98952637 21.83017578 1.97905273 21.22753906 1.96826172 C18.56840337 1.92659736 15.90933647 1.90064099 13.25 1.875 C12.32960938 1.85824219 11.40921875 1.84148437 10.4609375 1.82421875 C9.57148438 1.81777344 8.68203125 1.81132813 7.765625 1.8046875 C6.94868164 1.79421387 6.13173828 1.78374023 5.29003906 1.77294922 C2.78112482 2.02170084 1.16604375 2.74299871 -1 4 C-0.67 2.68 -0.34 1.36 0 0 Z " fill="#0E75F6" transform="translate(352,95)"/>
<path d="M0 0 C-4.22949995 2.41685712 -7.12335991 3.34833144 -12 3 C-12 3.66 -12 4.32 -12 5 C-16.625 7.125 -16.625 7.125 -20 6 C-4.82681941 -1.856469 -4.82681941 -1.856469 0 0 Z " fill="#3B82F7" transform="translate(94,96)"/>
<path d="M0 0 C3.45201639 1.47721422 5.64961936 3.43794001 8.25 6.125 C8.95640625 6.84945313 9.6628125 7.57390625 10.390625 8.3203125 C11.18726563 9.15175781 11.18726563 9.15175781 12 10 C11.67 10.66 11.34 11.32 11 12 C9 12 9 12 7.34375 10.390625 C6.7353125 9.68421875 6.126875 8.9778125 5.5 8.25 C4.8915625 7.55390625 4.283125 6.8578125 3.65625 6.140625 C2.12023037 4.15539208 1.0276034 2.28127955 0 0 Z " fill="#1FBACE" transform="translate(213,377)"/>
<path d="M0 0 C1.50433594 0.01353516 1.50433594 0.01353516 3.0390625 0.02734375 C3.80992187 0.03894531 4.58078125 0.05054688 5.375 0.0625 C5.375 0.3925 5.375 0.7225 5.375 1.0625 C4.075625 1.10375 2.77625 1.145 1.4375 1.1875 C-4.30945855 1.78044017 -8.14513053 4.59933849 -12.625 8.0625 C-12.625 7.0725 -12.625 6.0825 -12.625 5.0625 C-8.21816383 1.11954132 -5.84626711 -0.06797985 0 0 Z " fill="#1E77F7" transform="translate(323.625,56.9375)"/>
<path d="M0 0 C0.66 0.66 1.32 1.32 2 2 C-1.3 5.3 -4.6 8.6 -8 12 C-8.66 11.34 -9.32 10.68 -10 10 C-6.7 6.7 -3.4 3.4 0 0 Z " fill="#0C2A83" transform="translate(261,217)"/>
<path d="M0 0 C3.35250701 0.57575664 4.93818629 1.59306263 7.25 4.0625 C8.03117188 4.88427734 8.03117188 4.88427734 8.828125 5.72265625 C9.21484375 6.14417969 9.6015625 6.56570312 10 7 C9.67 7.99 9.34 8.98 9 10 C8.51789063 9.57847656 8.03578125 9.15695313 7.5390625 8.72265625 C6.90742188 8.17480469 6.27578125 7.62695312 5.625 7.0625 C4.99851563 6.51722656 4.37203125 5.97195312 3.7265625 5.41015625 C2.04367666 3.93041376 2.04367666 3.93041376 0 3 C0 2.01 0 1.02 0 0 Z " fill="#09297C" transform="translate(203,216)"/>
<path d="M0 0 C3.71884134 3.71884134 3.05539879 9.43114905 3.0625 14.4375 C3.04663375 15.95839326 3.02753831 17.4792733 3 19 C1.3749186 16.10511815 0.70315566 13.80091288 0.4375 10.5 C0.24302912 8.1822246 0.02466019 6.0901485 -0.58984375 3.84375 C-1 2 -1 2 0 0 Z " fill="#0D90F0" transform="translate(415,132)"/>
<path d="M0 0 C2.6875 0.875 2.6875 0.875 5 2 C5 2.66 5 3.32 5 4 C5.99 3.67 6.98 3.34 8 3 C8.33 3.99 8.66 4.98 9 6 C9.66 6.33 10.32 6.66 11 7 C10.67 7.99 10.34 8.98 10 10 C9.154375 9.236875 8.30875 8.47375 7.4375 7.6875 C4.17996332 4.9508582 0.96276872 3.50585211 -3 2 C-2.01 1.34 -1.02 0.68 0 0 Z " fill="#2086EE" transform="translate(371,123)"/>
<path d="M0 0 C0 0.33 0 0.66 0 1 C-6.11485027 1.09706112 -11.93303301 0.77040851 -18 0 C-11.87201676 -3.36438296 -6.33610694 -2.06893288 0 0 Z " fill="#10C8B8" transform="translate(379,390)"/>
<path d="M0 0 C5.94480408 2.51510942 10.2141594 6.90367611 14 12 C13.67 12.66 13.34 13.32 13 14 C10.83031809 11.85714108 8.66416525 9.71091768 6.5 7.5625 C5.87996094 6.95083984 5.25992188 6.33917969 4.62109375 5.70898438 C4.03457031 5.12568359 3.44804687 4.54238281 2.84375 3.94140625 C2.02680664 3.13231812 2.02680664 3.13231812 1.19335938 2.30688477 C0 1 0 1 0 0 Z " fill="#0A2272" transform="translate(196,252)"/>
<path d="M0 0 C0.33 0.99 0.66 1.98 1 3 C-1.64 3 -4.28 3 -7 3 C-7.33 2.01 -7.66 1.02 -8 0 C-4.71023192 -1.09658936 -3.28696233 -0.79953138 0 0 Z " fill="#27B1C6" transform="translate(237,335)"/>
<path d="M0 0 C0.33 0 0.66 0 1 0 C1.33 7.92 1.66 15.84 2 24 C1.01 24 0.02 24 -1 24 C-0.67 16.08 -0.34 8.16 0 0 Z " fill="#3489FA" transform="translate(296,97)"/>
<path d="M0 0 C0.99 0.33 1.98 0.66 3 1 C-1.30769231 6.78461538 -1.30769231 6.78461538 -4.8125 7.875 C-5.8953125 7.936875 -5.8953125 7.936875 -7 8 C-4.79020692 5.18060883 -2.59937954 2.46941056 0 0 Z " fill="#1C3889" transform="translate(287,191)"/>
<path d="M0 0 C0.99 0.66 1.98 1.32 3 2 C-1.30769231 6.92307692 -1.30769231 6.92307692 -4.8125 7.3125 C-5.8953125 7.1578125 -5.8953125 7.1578125 -7 7 C-5.68 6.67 -4.36 6.34 -3 6 C-2.814375 5.071875 -2.814375 5.071875 -2.625 4.125 C-2 2 -2 2 0 0 Z " fill="#D2F3F4" transform="translate(239,388)"/>
<path d="M0 0 C-4.5 4 -4.5 4 -9 4 C-8 1 -8 1 -5.625 -0.25 C-3 -1 -3 -1 0 0 Z " fill="#15317E" transform="translate(338,325)"/>
<path d="M0 0 C1.21236328 0.02707031 1.21236328 0.02707031 2.44921875 0.0546875 C3.37154297 0.08949219 3.37154297 0.08949219 4.3125 0.125 C4.3125 0.455 4.3125 0.785 4.3125 1.125 C2.518125 1.2178125 2.518125 1.2178125 0.6875 1.3125 C-4.09480383 1.87412287 -6.29257231 3.81494551 -9.6875 7.125 C-7.82206758 1.67219755 -5.82891046 -0.16895393 0 0 Z " fill="#33C7CC" transform="translate(193.6875,313.875)"/>
<path d="M0 0 C0.66 0.66 1.32 1.32 2 2 C-0.31 4.31 -2.62 6.62 -5 9 C-5.33 8.01 -5.66 7.02 -6 6 C-4.02 4.02 -2.04 2.04 0 0 Z " fill="#082881" transform="translate(301,178)"/>
<path d="M0 0 C1 3 1 3 0.3125 5.5 C-1.11413528 8.21740054 -2.43428575 9.37504764 -5 11 C-3.77472971 6.94718288 -2.30119506 3.55639236 0 0 Z " fill="#246DF6" transform="translate(57,119)"/>
<path d="M0 0 C0.99 0.33 1.98 0.66 3 1 C0.66666667 3.33333333 -1.66666667 5.66666667 -4 8 C-3.50168276 4.31245243 -2.89932357 2.39509338 0 0 Z " fill="#1161F3" transform="translate(62,113)"/>
<path d="M0 0 C0.66 0.33 1.32 0.66 2 1 C-0.13478166 4.20217249 -1.62795029 5.27285259 -5 7 C-5.99 7 -6.98 7 -8 7 C-5.36 4.69 -2.72 2.38 0 0 Z " fill="#2EC1CA" transform="translate(265,366)"/>
<path d="M0 0 C0.66 0.33 1.32 0.66 2 1 C0.63016497 4.16115776 0.0109362 4.9927092 -3 7 C-3 3 -3 3 -1.5 1.25 C-1.005 0.8375 -0.51 0.425 0 0 Z " fill="#173388" transform="translate(132,163)"/>
<path d="M0 0 C0.66 0 1.32 0 2 0 C1.32829194 3.8063457 0.27253436 7.35206816 -1 11 C-3 8 -3 8 -3 6 C-2.34 6 -1.68 6 -1 6 C-1.0309375 4.7934375 -1.0309375 4.7934375 -1.0625 3.5625 C-1 1 -1 1 0 0 Z " fill="#156FF6" transform="translate(79,138)"/>
<path d="M0 0 C2.475 0.495 2.475 0.495 5 1 C4.67 2.65 4.34 4.3 4 6 C2 4.6875 2 4.6875 0 3 C0 2.01 0 1.02 0 0 Z " fill="#102A71" transform="translate(212,266)"/>
<path d="M0 0 C0.33 0.99 0.66 1.98 1 3 C-1.97 5.475 -1.97 5.475 -5 8 C-5 5 -5 5 -2.5 2.3125 C-1.675 1.549375 -0.85 0.78625 0 0 Z " fill="#122B7E" transform="translate(309,170)"/>
<path d="M0 0 C-1.39332574 3.36720387 -2.9789286 4.9859524 -6 7 C-6 4 -6 4 -4.125 1.8125 C-2 0 -2 0 0 0 Z " fill="#EAF9FA" transform="translate(280,393)"/>
<path d="M0 0 C1.98 0 3.96 0 6 0 C6 0.99 6 1.98 6 3 C4.02 3 2.04 3 0 3 C0 2.01 0 1.02 0 0 Z " fill="#07A2BC" transform="translate(191,334)"/>
<path d="M0 0 C0.625 1.875 0.625 1.875 1 4 C0.34 4.66 -0.32 5.32 -1 6 C-3.125 5.625 -3.125 5.625 -5 5 C-3.35 3.35 -1.7 1.7 0 0 Z " fill="#0B2972" transform="translate(292,229)"/>
<path d="M0 0 C-0.33 0.66 -0.66 1.32 -1 2 C-3.31 2 -5.62 2 -8 2 C-8.33 1.34 -8.66 0.68 -9 0 C-5.52176885 -1.15941038 -3.54104422 -0.70820884 0 0 Z " fill="#0AA8C0" transform="translate(281,335)"/>
</svg>
